<?xml version="1.0" encoding="UTF-8" standalone="no"?>
<!-- Created with Inkscape (http://www.inkscape.org/) -->

<svg
   xmlns:dc="http://purl.org/dc/elements/1.1/"
   xmlns:cc="http://creativecommons.org/ns#"
   xmlns:rdf="http://www.w3.org/1999/02/22-rdf-syntax-ns#"
   xmlns:svg="http://www.w3.org/2000/svg"
   xmlns="http://www.w3.org/2000/svg"
   xmlns:sodipodi="http://sodipodi.sourceforge.net/DTD/sodipodi-0.dtd"
   xmlns:inkscape="http://www.inkscape.org/namespaces/inkscape"
   width="300"
   height="300"
   viewBox="0 0 79.374998 79.375002"
   version="1.1"
   id="svg8"
   inkscape:version="0.92.1 r15371"
   sodipodi:docname="watch.svg">
  <defs
     id="defs2" />
  <sodipodi:namedview
     id="base"
     pagecolor="#ffffff"
     bordercolor="#666666"
     borderopacity="1.0"
     inkscape:pageopacity="0.0"
     inkscape:pageshadow="2"
     inkscape:zoom="1.4142136"
     inkscape:cx="107.02585"
     inkscape:cy="87.148683"
     inkscape:document-units="mm"
     inkscape:current-layer="layer2"
     showgrid="false"
     units="px"
     inkscape:window-width="1920"
     inkscape:window-height="1139"
     inkscape:window-x="0"
     inkscape:window-y="0"
     inkscape:window-maximized="1" />
  <metadata
     id="metadata5">
    <rdf:RDF>
      <cc:Work
         rdf:about="">
        <dc:format>image/svg+xml</dc:format>
        <dc:type
           rdf:resource="http://purl.org/dc/dcmitype/StillImage" />
        <dc:title></dc:title>
      </cc:Work>
    </rdf:RDF>
  </metadata>
  <g
     inkscape:groupmode="layer"
     id="layer2"
     inkscape:label="background">
    <circle
       style="fill:#fcc837;fill-opacity:1;stroke:#fcc837;stroke-width:0.29430786;stroke-opacity:1"
       id="path24"
       cx="39.6875"
       cy="39.6875"
       r="39.540344" />
  </g>
  <g
     inkscape:groupmode="layer"
     id="layer3"
     inkscape:label="body"
     style="display:inline">
    <path
       style="fill:#ffffff;fill-opacity:1;stroke:#ffffff;stroke-width:1.11234462;stroke-miterlimit:4;stroke-dasharray:none;stroke-opacity:1"
       d="M 150 48.132812 A 101.86629 101.86629 0 0 0 48.132812 150 A 101.86629 101.86629 0 0 0 150 251.86719 A 101.86629 101.86629 0 0 0 251.86719 150 A 101.86629 101.86629 0 0 0 150 48.132812 z M 150 62.126953 A 87.872898 87.872898 0 0 1 237.87305 150 A 87.872898 87.872898 0 0 1 150 237.87305 A 87.872898 87.872898 0 0 1 62.126953 150 A 87.872898 87.872898 0 0 1 150 62.126953 z "
       transform="scale(0.26458333)"
       id="circle26" />
  </g>
  <g
     inkscape:groupmode="layer"
     id="layer4"
     inkscape:label="foreground"
     style="display:inline">
    <path
       style="display:inline;fill:#ffffff;fill-opacity:1;stroke:#ffffff;stroke-width:1.11234462;stroke-miterlimit:4;stroke-dasharray:none;stroke-opacity:1"
       d="M 141.01172,72.962891 V 141.61328 A 12.30857,12.30857 0 0 0 137.69141,150 12.30857,12.30857 0 0 0 150,162.30859 a 12.30857,12.30857 0 0 0 11.10742,-7.03906 h 52.37891 v -13.20312 h -54.0918 a 12.30857,12.30857 0 0 0 -3.49609,-2.86914 V 72.962891 Z"
       transform="scale(0.26458333)"
       id="rect32"
       inkscape:connector-curvature="0" />
  </g>
</svg>
